<svg id="a2c406a3-889d-4b14-9b21-5de2165299cc" data-name="Camada 1" xmlns="http://www.w3.org/2000/svg" width="403.40892" height="403.40892" viewBox="0 0 403.40892 403.40892"><title>afemg-logo</title><rect width="403.40892" height="403.40892" rx="60.86069" fill="#fff"/><path d="M1121.5677,676.11555q-.28353.85651-.574,1.667l35.91,1.037c-.18-1.139-.345-2.366-.505-3.658Z" transform="translate(-1021.27961 -420.6553)" fill="#ef1b1b"/><path d="M1190.5091,525.10926l26.733-45.515-2.549-4.51,5.201-.005-2.652,4.515,44.907,79.439c3.017.485,6.28.958,9.709,1.423l-.433-.736a16.99491,16.99491,0,0,1-11.454-19.477l-40.079-68.157-2.66-4.524-2.542,4.528-28.989,51.643-17.625,31.704c1.747-.284,3.41-.572,4.964-.864Z" transform="translate(-1021.27961 -420.6553)" fill="#ef1b1b"/><path d="M1100.97689,676.67906l13.783-23.454q.28351-1.5645.592-3.232l-15.241,27.187,10.933.315c.036-.349.075-.716.116-1.095Z" transform="translate(-1021.27961 -420.6553)" fill="#ef1b1b"/><path d="M1272.57648,676.58135q-.033.297-.068.593.03451-.29549.068-.593" transform="translate(-1021.27961 -420.6553)" fill="#ef1b1b"/><path d="M1120.24639,676.91245c-.034.099-.068.197-.103.294.035-.097.069-.195.103-.294" transform="translate(-1021.27961 -420.6553)" fill="#ef1b1b"/><path d="M1255.2298,672.50425c.419,3.707.698,6.629.872,8.929q3.978.075,7.959.149c-.18-2.523-.274-5.584-.289-9.247q-4.2675.081-8.542.169" transform="translate(-1021.27961 -420.6553)" fill="#ef1b1b"/><path d="M1272.1995,679.66245c-.024.187-.049.374-.074.558.025-.184.05-.371.074-.558" transform="translate(-1021.27961 -420.6553)" fill="#ef1b1b"/><path d="M1272.32648,678.67315c-.023.187-.047.373-.07.556.023-.183.047-.369.07-.556" transform="translate(-1021.27961 -420.6553)" fill="#ef1b1b"/><path d="M1247.3411,672.66445q-6.19953.132-12.417.279c-.59,2.291-1.039,4.769-1.451,7.065-.059.325-.116.642-.173.955q7.98.18151,15.989.339-.20251-.954-.405-1.945c-.461-2.232-.944-4.559-1.543-6.693" transform="translate(-1021.27961 -420.6553)" fill="#ef1b1b"/><path d="M1277.2425,672.07945q-1.57952.03152-3.16.06c-.058.511-.114,1.021-.17,1.525-.33,2.968-.636,5.688-.996,8.08q.963.018,1.929.035,17.079.2265,34.183.312c-1.124-2.999-2.144-6.54-3.194-10.308q-14.29349.09-28.592.296" transform="translate(-1021.27961 -420.6553)" fill="#ef1b1b"/><path d="M1339.01688,674.35c-9.465-16.297-19.093-32.501-28.705-48.714a54.3079,54.3079,0,0,0,3.414,7.208,1.312,1.312,0,0,1,.128,1.044c-.224.748-.999,1.134-1.897,1.58a9.42945,9.42945,0,0,0-.962.526c1.168,5.656,2.183,10.712,3.066,15.249q5.77051,10.2645,11.589,20.502c2.964.004,5.928.003,8.894.021l-4.473,7.743q-2.22-3.87752-4.421-7.764-3.963-.00749-7.923-.005c.688,4.425,1.11,7.8,1.334,10.386q7.74449.0075,15.483-.033l8.942-.05Z" transform="translate(-1021.27961 -420.6553)" fill="#ef1b1b"/><path d="M1266.28251,560.67756c1.271.187,2.575.373,3.904.558-1.329-.185-2.633-.371-3.904-.558" transform="translate(-1021.27961 -420.6553)" fill="#ef1b1b"/><polygon points="193.413 54.429 195.963 58.939 198.614 54.424 193.413 54.429" fill="#ef1b1b"/><path d="M1272.45051,677.65655c-.022.187-.045.374-.067.558.022-.184.045-.371.067-.558" transform="translate(-1021.27961 -420.6553)" fill="#ef1b1b"/><path d="M1334.54429,671.766c-2.967-.018-5.931-.017-8.895-.021q2.208,3.882,4.421,7.764Z" transform="translate(-1021.27961 -420.6553)" fill="#ef1b1b"/><path d="M1219.6087,673.348l-4.095.118c.248,2.948.388,5.26.449,7.058q5.667.16048,11.365.297c.122-2.098.332-4.641.602-7.694-2.772.073-5.54.14-8.321.221" transform="translate(-1021.27961 -420.6553)" fill="#ef1b1b"/><path d="M1184.9701,674.34506c-.352,1.946-.685,3.73-1.048,5.281l2.201.066,22.295.622c-.559-1.979-1.049-4.225-1.542-6.599Z" transform="translate(-1021.27961 -420.6553)" fill="#ef1b1b"/><path d="M1165.67319,674.90075q-.048,2.313-.162,4.176l11.865.353c-.002-1.362.057-2.976.167-4.871Z" transform="translate(-1021.27961 -420.6553)" fill="#ef1b1b"/><path d="M1178.5355,674.53065c-.042.714-.079,1.409-.105,2.062.026-.654.063-1.347.105-2.062" transform="translate(-1021.27961 -420.6553)" fill="#ef1b1b"/><path d="M1178.43,676.59216c-.043,1.044-.063,1.998-.06,2.868-.003-.87.017-1.824.06-2.868" transform="translate(-1021.27961 -420.6553)" fill="#ef1b1b"/><path d="M1232.28739,680.94074c.401-2.203.818-4.647,1.365-6.997-.547,2.35-.965,4.794-1.365,6.997" transform="translate(-1021.27961 -420.6553)" fill="#ef1b1b"/><path d="M1233.7161,673.66345c.056-.233.115-.464.174-.695-.059.231-.118.462-.174.695" transform="translate(-1021.27961 -420.6553)" fill="#ef1b1b"/><path d="M1307.97489,675.65266c-.012-.041-.024-.082-.036-.122.012.04.024.081.036.122" transform="translate(-1021.27961 -420.6553)" fill="#ef1b1b"/><path d="M1272.0687,680.63215c-.025.18-.051.359-.076.536.025-.177.051-.356.076-.536" transform="translate(-1021.27961 -420.6553)" fill="#ef1b1b"/><path d="M1309.596,680.74545c-.041-.118-.082-.237-.124-.355.042.118.083.237.124.355" transform="translate(-1021.27961 -420.6553)" fill="#ef1b1b"/><path d="M1255.09211,681.41345c-.056-.726-.117-1.48-.188-2.268.071.788.132,1.542.188,2.268" transform="translate(-1021.27961 -420.6553)" fill="#ef1b1b"/><path d="M1308.29719,676.73475c-.022-.072-.044-.146-.066-.219.022.073.044.147.066.219" transform="translate(-1021.27961 -420.6553)" fill="#ef1b1b"/><path d="M1308.94169,678.80305c-.033-.103-.066-.207-.1-.312.034.105.067.209.1.312" transform="translate(-1021.27961 -420.6553)" fill="#ef1b1b"/><path d="M1308.61649,677.77676l-.079-.255Z" transform="translate(-1021.27961 -420.6553)" fill="#ef1b1b"/><path d="M1214.9681,680.49645h0c-.069-1.984-.228-4.358-.452-7.002.224,2.644.383,5.018.452,7.002" transform="translate(-1021.27961 -420.6553)" fill="#ef1b1b"/><path d="M1182.90459,679.59605c.052-.221.103-.457.154-.687-.051.233-.104.463-.157.686Z" transform="translate(-1021.27961 -420.6553)" fill="#ef1b1b"/><path d="M1309.2689,679.79334c-.039-.114-.077-.229-.115-.345.038.116.076.232.115.345" transform="translate(-1021.27961 -420.6553)" fill="#ef1b1b"/><path d="M1183.6859,675.807q.1305-.702.263-1.433-.132.7305-.263,1.433" transform="translate(-1021.27961 -420.6553)" fill="#ef1b1b"/><path d="M1254.25031,672.75225c-.009-.075-.018-.152-.025-.228.007.076.016.153.025.228" transform="translate(-1021.27961 -420.6553)" fill="#ef1b1b"/><path d="M1271.90848,681.726l.021-.137-.021.137" transform="translate(-1021.27961 -420.6553)" fill="#ef1b1b"/><path d="M1311.51688,634.57066c-.306.151-.616.307-.88.466.264-.159.574-.315.88-.466" transform="translate(-1021.27961 -420.6553)" fill="#ef1b1b"/><path d="M1157.60529,676.69465c-.023-.175-.047-.353-.07-.529.023.176.047.354.07.529" transform="translate(-1021.27961 -420.6553)" fill="#ef1b1b"/><path d="M1316.9759,673.391q.28047,1.87652.506,3.585-.225-1.70548-.506-3.585" transform="translate(-1021.27961 -420.6553)" fill="#ef1b1b"/><path d="M1308.8577,624.66294c.604,1.595,1.238,3.139,1.906,4.597-.668-1.459-1.302-3.002-1.906-4.597" transform="translate(-1021.27961 -420.6553)" fill="#ef1b1b"/><path d="M1312.36649,634.11755c-.243.15-.544.301-.85.453.306-.152.607-.303.85-.453" transform="translate(-1021.27961 -420.6553)" fill="#ef1b1b"/><path d="M1272.7132,675.39195q-.042.366-.083.729c.027-.242.055-.486.083-.729" transform="translate(-1021.27961 -420.6553)" fill="#ef1b1b"/><path d="M1316.9759,673.391c-.08-.537-.165-1.09-.252-1.647.087.557.172,1.11.252,1.647" transform="translate(-1021.27961 -420.6553)" fill="#ef1b1b"/><path d="M1157.8792,678.57165c-.025-.161-.05-.326-.075-.49.025.164.05.329.075.49" transform="translate(-1021.27961 -420.6553)" fill="#ef1b1b"/><path d="M1157.47539,675.71224q-.03452-.276-.07-.556.036.28053.07.556" transform="translate(-1021.27961 -420.6553)" fill="#ef1b1b"/><path d="M1273.0091,672.73666q-.07054.6345-.14,1.259.069-.62549.14-1.259" transform="translate(-1021.27961 -420.6553)" fill="#ef1b1b"/><path d="M1272.85191,674.14875c-.034.31-.068.618-.104.924.036-.306.07-.614.104-.924" transform="translate(-1021.27961 -420.6553)" fill="#ef1b1b"/><path d="M1157.7391,677.64485c-.024-.165-.047-.334-.071-.502.024.168.047.337.071.502" transform="translate(-1021.27961 -420.6553)" fill="#ef1b1b"/><path d="M1309.93,681.66535c-.044-.118-.088-.238-.132-.359.044.121.088.241.132.359" transform="translate(-1021.27961 -420.6553)" fill="#ef1b1b"/><path d="M1273.02079,672.63125c.018-.157.035-.315.053-.473-.018.159-.035.316-.053.473" transform="translate(-1021.27961 -420.6553)" fill="#ef1b1b"/><path d="M1183.3548,677.51016c-.066.333-.134.663-.202.98.068-.317.136-.647.202-.98" transform="translate(-1021.27961 -420.6553)" fill="#ef1b1b"/><path d="M1248.888,674.66445c-.01-.043-.02-.087-.029-.13.009.043.019.087.029.13" transform="translate(-1021.27961 -420.6553)" fill="#ef1b1b"/><path d="M1248.6038,673.515c-.015-.059-.029-.118-.044-.177.015.059.029.118.044.177" transform="translate(-1021.27961 -420.6553)" fill="#ef1b1b"/><path d="M1308.26688,623.05165c-.247-.691-.486-1.391-.721-2.094.235.703.474,1.403.721,2.094" transform="translate(-1021.27961 -420.6553)" fill="#ef1b1b"/><path d="M1183.6722,675.88026c-.083.442-.166.876-.249,1.298.083-.422.166-.856.249-1.298" transform="translate(-1021.27961 -420.6553)" fill="#ef1b1b"/><path d="M1312.36649,634.11755c.405-.25.651-.502.495-.77.156.268-.09.52-.495.77" transform="translate(-1021.27961 -420.6553)" fill="#ef1b1b"/><path d="M1120.474,676.24745c.012-.035.023-.068.035-.104h-.001c-.011.035-.023.07-.034.104" transform="translate(-1021.27961 -420.6553)" fill="#ef1b1b"/><path d="M1254.4925,674.973c.116,1.091.223,2.15.319,3.169-.096-1.019-.203-2.078-.319-3.169" transform="translate(-1021.27961 -420.6553)" fill="#ef1b1b"/><path d="M1147.69559,556.04386a16.04277,16.04277,0,1,0-16.034-16.034,16.03441,16.03441,0,0,0,16.034,16.034" transform="translate(-1021.27961 -420.6553)" fill="#1d3251"/><path d="M1166.86849,590.63166a42.537,42.537,0,0,1,1.119-4.791q.33451-1.11.733-2.145c.266-.692.556-1.361.872-2.013a24.40856,24.40856,0,0,1,1.608-2.824q.6015-.91048,1.298-1.79c.465-.587.964-1.166,1.499-1.743a39.80106,39.80106,0,0,1,3.674-3.448c4.505-3.763,10.801-7.729,19.699-13.038a55.011,55.011,0,0,0,10.824-7.998q.46651-.468.867-.916a14.70052,14.70052,0,0,0,2.43-3.499,7.95969,7.95969,0,0,0,.484-1.307,6.00874,6.00874,0,0,0,.2-1.153c.012-.179.015-.352.01-.519a4.55388,4.55388,0,0,0-.237-1.333,4.472,4.472,0,0,0-1.032-1.677,3.30422,3.30422,0,0,0-.498-.428c-.001,0-19.107,8.131-24.698,11.859a19.06178,19.06178,0,0,1-5.07,2.005c-1.521.426-3.287.841-5.254,1.246-.962.198-1.974.393-3.028.587l-.067.012q-1.61852.297-3.366.586c-.483.08-.977.16-1.474.24-1.895.303-3.88.602-5.942.897-2.604.372-5.325.737-8.122,1.098q-2.097.27-4.246.538c-5.723.714-11.665,1.412-17.49,2.112a25.53564,25.53564,0,0,0-8.312,2.545,33.04416,33.04416,0,0,0-3.824,2.234q-.927.62553-1.825,1.312a45.38006,45.38006,0,0,0-3.474,2.945,59.03222,59.03222,0,0,0-4.748,5.021c-.992,1.174-1.942,2.378-2.847,3.594-1.358,1.825-2.616,3.677-3.771,5.498-.385.606-.758,1.21-1.119,1.807-.724,1.194-1.4,2.366-2.028,3.496q-.471.849-.906,1.663c-.579,1.085-1.109,2.12-1.589,3.088-2.162,4.354-3.305,7.34-3.305,7.34l3.728.932s9.787-13.048,22.37-17.58c.36-.13.704-.245,1.038-.353.104-.034.202-.063.303-.095.229-.071.453-.138.67-.2.106-.03.211-.058.314-.086q.318-.084.616-.155c.086-.02.175-.042.259-.061a14.24223,14.24223,0,0,1,1.514-.255c.072-.009.139-.013.209-.02.157-.014.309-.025.456-.032.072-.003.143-.005.213-.007.052-.001.109-.005.16-.005.039,0,.068.007.105.008a5.21145,5.21145,0,0,1,1.525.223c.045.014.09.028.132.043a3.09057,3.09057,0,0,1,.536.25c.027.015.049.033.075.05a2.63609,2.63609,0,0,1,.383.298c.019.019.041.036.06.055a2.41988,2.41988,0,0,1,.308.385c.019.029.036.058.054.087a2.97188,2.97188,0,0,1,.348.91c.007.033.015.065.02.097a3.99452,3.99452,0,0,1,.06.473c.002.026.002.051.003.077.008.147.009.294.003.439-.001.024,0,.047-.002.071-.007.157-.021.311-.039.462l-.012.093a8.243,8.243,0,0,1-.161.833c-.006.026-.013.051-.019.076-.03.116-.06.224-.089.321-.006.019-.011.034-.016.052-.026.085-.051.161-.073.227l-.012.034c-.024.07-.043.124-.059.163l-.01.027c-.011.027-.018.047-.018.047s-6.932,30.783-11.989,57.655q-.3255,1.734-.641,3.442c-1.829,9.923-3.34,19.083-4.072,25.659-.044.391-.086.779-.124,1.152-.561,5.518-.496,8.943.516,9.024a3.94941,3.94941,0,0,0,.421.004c.086-.003.171-.009.256-.017.087-.009.174-.02.26-.034.083-.014.166-.033.248-.052.084-.021.168-.043.251-.069.081-.026.161-.055.24-.086.082-.032.162-.066.242-.103.079-.036.157-.076.234-.118.079-.043.157-.087.234-.136.076-.047.152-.098.228-.15.075-.053.15-.108.224-.166.075-.058.149-.119.223-.183.072-.061.145-.126.216-.193.073-.07.145-.141.217-.214.07-.071.14-.146.209-.222.071-.079.142-.16.212-.244.067-.08.133-.162.2-.246.07-.09.14-.182.209-.275.064-.088.128-.177.191-.268.069-.101.138-.202.207-.308.061-.093.122-.19.183-.288.068-.11.136-.221.203-.337.059-.099.118-.202.176-.305.068-.121.135-.243.202-.369.056-.105.111-.212.167-.32.067-.132.135-.265.201-.402.053-.108.106-.219.159-.33.067-.144.134-.288.201-.437.05-.11.1-.222.149-.335.068-.156.136-.313.203-.473q.0705-.168.141-.339c.069-.168.137-.338.206-.511.043-.109.086-.221.129-.332.07-.184.141-.369.21-.557.04-.105.079-.212.118-.319.007-.02.014-.042.022-.062q.099-.27.196-.546c.035-.097.069-.196.103-.294.076-.22.152-.441.227-.665.012-.034.023-.07.035-.104.018-.054.036-.109.055-.165.079-.238.158-.478.237-.722.024-.077.048-.153.073-.23.085-.265.169-.531.253-.802l.049-.155q.13651-.444.273-.896c.009-.029.018-.058.026-.087,4.061-13.502,7.653-32.661,17.758-35.313l.029-.006c.251-.065.505-.121.764-.165.072-.013.148-.017.221-.028.197-.029.395-.059.598-.075.109-.01.222-.009.333-.015.163-.008.325-.02.491-.02h.043q.44551.00149.872.04c.1.008.195.027.293.039.182.021.367.04.544.071.103.018.2.046.302.067.166.035.334.068.497.112.112.031.22.071.331.106.145.045.292.086.433.139.111.041.216.091.323.135.136.057.274.11.407.173.109.052.213.113.32.169.126.067.254.129.377.2.106.064.208.135.313.203.117.075.237.146.351.226.104.073.202.155.303.233.11.084.222.165.33.254.098.081.191.17.286.255.106.095.214.186.316.286.094.089.182.186.273.28.1.103.203.204.301.311.088.098.171.202.257.304.096.112.194.223.287.34.085.106.165.219.247.329.09.12.181.236.269.36.08.115.156.235.235.351.085.129.172.254.255.387.077.121.149.248.223.372.08.134.162.266.241.405.074.132.145.27.218.405.073.138.149.274.221.415.071.139.138.284.207.427.07.144.14.284.208.431.066.144.129.294.194.441.067.151.134.301.198.455.063.149.122.303.183.454.062.158.126.313.188.474.059.157.116.318.174.478.058.161.118.319.174.482.057.162.11.328.165.493s.111.329.164.497c.054.168.105.34.156.511.052.168.104.335.154.505.049.17.096.344.144.515.05.177.1.352.148.53.046.171.089.343.133.515.047.183.095.365.141.549.043.177.085.356.127.534.044.183.088.365.13.549.042.182.081.365.121.548.041.186.082.37.121.556.039.185.076.373.114.559.039.186.077.37.113.558.037.189.073.38.109.57.035.188.071.374.106.563q.051.28349.1.569c.034.191.069.384.101.576.033.19.063.38.095.569.031.194.064.387.095.582s.061.391.091.587c.029.191.059.379.087.57.03.201.059.401.088.602.027.187.055.372.081.559q.04352.309.085.616c.025.183.051.365.075.547q.042.315.082.628c.024.179.047.358.07.537q.039.3105.078.619c.023.184.046.367.068.551.024.193.047.387.07.58.023.194.047.39.07.584.024.203.047.405.071.607.02.176.041.352.061.527.026.226.051.45.077.675.018.161.036.321.054.481.026.227.051.452.076.678q.027.228.051.456.05248.471.105.936c.019.177.039.351.058.527.029.257.057.513.086.767.012.108.024.213.036.32q.042.366.082.728c.018.155.036.308.054.461.023.198.046.398.068.593.02.163.039.322.058.483q.03448.2805.067.557c.018.147.036.291.054.435l.003.024c.024.186.046.372.07.556.02.152.039.301.06.453.023.176.046.354.07.529.02.151.041.299.062.448.024.168.048.337.072.502.021.148.043.292.065.437.024.164.049.329.075.49.014.094.03.185.045.278.006.043.014.086.021.129.026.161.052.322.079.479.023.135.047.267.071.399.027.151.054.302.081.449.025.132.051.26.076.389.028.142.055.282.084.419.027.127.054.25.081.374.03.134.059.268.089.397.028.122.057.238.086.355.031.124.061.248.092.368.031.115.062.226.093.337.032.116.065.232.098.345.032.107.065.21.098.312.034.108.068.215.103.318.035.099.07.194.105.29.037.098.073.198.11.292.036.09.074.176.111.263.039.09.078.18.117.265.039.082.079.159.119.236.041.08.082.161.125.238.041.073.083.14.125.208.044.071.087.141.133.208.043.062.088.12.133.178.047.061.093.122.142.178.046.053.094.101.141.148.05.051.099.101.15.145.05.044.101.081.152.119.053.039.105.078.159.111a1.67327,1.67327,0,0,0,.161.086,1.69154,1.69154,0,0,0,.168.078,1.787,1.787,0,0,0,.172.052,1.37017,1.37017,0,0,0,.179.042,1.54125,1.54125,0,0,0,.181.019,2.13538,2.13538,0,0,0,.254.008c1.461-.095,2.188-3.069,2.506-8.037.08-1.25.135-2.628.169-4.118.436-19.299-2.597-57.508,2.18-84.297" transform="translate(-1021.27961 -420.6553)" fill="#1d3251"/><path d="M1266.48179,555.89826a16.03786,16.03786,0,0,0,3.958,2.401c.063.027.128.045.19.07a16.03726,16.03726,0,1,0-1.135-29.162q-.648.32547-1.259.708a16.01555,16.01555,0,0,0-1.754,25.983" transform="translate(-1021.27961 -420.6553)" fill="#1d3251"/><path d="M1331.7562,596.40855c-.795-1.546-1.702-3.224-2.716-4.975-1.013-1.75-2.135-3.573-3.358-5.408q-.61053-.918-1.257-1.837c-.86-1.224-1.767-2.445-2.715-3.645a58.66235,58.66235,0,0,0-7.911-8.323,38.79708,38.79708,0,0,0-5.476-3.922,26.53247,26.53247,0,0,0-10.253-3.593c-2.184-.262-4.384-.525-6.585-.787q-1.09951-.132-2.198-.263-2.1975-.264-4.379-.529c-4.252-.518-8.43-1.041-12.407-1.576-.779-.105-1.552-.21-2.314-.315q-1.99352-.27753-3.905-.558-1.7985-.2655-3.506-.536c-9.114-1.443-16.123-2.996-18.763-4.756-5.593-3.728-24.699-11.86-24.699-11.86s-8.855,5.762,13.047,18.83c5.477,3.267,9.967,6.026,13.661,8.541q1.38452.9435,2.625,1.845c1.24.904,2.375,1.783,3.414,2.651q1.0395.86852,1.955,1.727.91653.8595,1.719,1.723c.535.576,1.034,1.155,1.499,1.743q.696.88051,1.297,1.789a24.41734,24.41734,0,0,1,1.609,2.824c.315.652.605,1.321.872,2.013.266.692.51,1.405.732,2.146a42.03641,42.03641,0,0,1,1.119,4.79c.078.435.138.947.184,1.529.03.388.054.807.07,1.254.026.672.037,1.407.035,2.199q-.00151.7905-.021,1.654c-.024,1.15-.071,2.389-.136,3.698-.016.345-.035.696-.054,1.05-.053.969-.116,1.972-.186,3.002-.003.047-.006.094-.01.142q-.0705,1.035-.151,2.103-.045.59848-.094,1.205-.08551,1.07551-.179,2.175c-.194,2.287-.412,4.633-.643,6.971-.151,1.522-.307,3.04-.465,4.537-.008.074-.015.147-.022.22-.359,3.375-.728,6.634-1.073,9.571a56.82958,56.82958,0,0,1,6.138,7.829l.599.957-1.023.479-1.798.843-.6.281-.493-.443a32.94065,32.94065,0,0,0-3.695-2.745c-.422,3.386-.703,5.488-.703,5.488l.01-.003.048-.015c.013-.005.024-.009.046-.016l.13-.042c.029-.01.05-.016.084-.027.087-.029.187-.06.303-.096.02-.006.041-.013.062-.019.098-.031.206-.063.321-.098.046-.014.091-.026.139-.041.116-.034.238-.069.366-.107.038-.01.073-.02.112-.032.163-.046.334-.092.511-.138.044-.012.09-.024.135-.036.143-.038.288-.074.436-.11l.156-.038c.193-.046.387-.091.583-.133l.003-.001c.19-.04.379-.076.566-.11.053-.01.104-.019.156-.028.148-.024.292-.046.434-.066.046-.006.092-.014.137-.019.179-.022.352-.04.516-.049.03-.002.058-.002.088-.003.092-.005.183-.01.269-.01.028,0,.049.005.077.005.099.002.189.01.279.019.066.007.135.012.195.024a1.30468,1.30468,0,0,1,.223.064,1.15658,1.15658,0,0,1,.141.051.595.595,0,0,1,.158.128.56116.56116,0,0,1,.075.071.49312.49312,0,0,1,.076.291l.001.003c-.056,1.542-.128,3.36-.204,5.359q-.03.7845-.061,1.605c-.077,2.108-.155,4.378-.218,6.716-.033,1.17-.062,2.355-.085,3.548-.024,1.191-.042,2.388-.054,3.579-.012,1.19-.017,2.375-.013,3.542,0,.135.002.267.002.402.005,1.028.016,2.043.035,3.032q.018.84.041,1.655c.05,1.625.123,3.17.228,4.597l.001.013a45.99818,45.99818,0,0,0,.595,4.994,16.21412,16.21412,0,0,0,.446,1.844c.416,1.327.95,2.103,1.627,2.147a1.94446,1.94446,0,0,0,.254-.007,1.77131,1.77131,0,0,0,.18-.018,1.669,1.669,0,0,0,.179-.042,1.70785,1.70785,0,0,0,.172-.053,1.676,1.676,0,0,0,.168-.077,1.7909,1.7909,0,0,0,.161-.087,1.87892,1.87892,0,0,0,.159-.11c.051-.038.103-.076.152-.119.051-.045.1-.095.15-.145.048-.048.096-.095.142-.149.049-.056.094-.116.141-.177.045-.059.09-.116.134-.18.045-.065.089-.136.133-.207.042-.068.084-.135.125-.209.043-.075.084-.156.125-.237.04-.077.08-.153.118-.235.04-.085.078-.176.117-.266.037-.086.075-.172.112-.263.037-.094.073-.194.11-.294.035-.094.07-.188.103-.287.037-.103.071-.213.106-.321.032-.103.064-.203.097-.31.033-.112.065-.229.097-.345.031-.112.063-.222.093-.336.031-.12.062-.245.093-.369.028-.118.057-.234.086-.354.03-.13.059-.264.089-.398.027-.123.054-.246.081-.373.028-.137.055-.279.084-.419.025-.129.05-.258.075-.39.028-.146.055-.298.082-.448.023-.133.048-.264.07-.4.028-.157.054-.318.08-.478.022-.136.044-.27.066-.407.018-.119.037-.242.055-.363l.021-.136c.021-.141.043-.28.063-.421.026-.177.051-.357.076-.536.019-.138.039-.274.057-.412.026-.184.05-.372.074-.558.02-.145.038-.287.057-.434.023-.182.047-.369.07-.555.02-.153.038-.305.057-.459.022-.184.045-.371.067-.558.02-.16.038-.32.058-.482q.03451-.2955.068-.593c.019-.154.036-.307.054-.461q.0405-.36149.083-.729c.012-.106.023-.212.035-.319q.0525-.459.104-.924c.006-.051.011-.101.017-.153q.069-.624.14-1.259l.012-.105c.017-.158.035-.315.052-.473.018-.152.035-.304.052-.456.018-.158.035-.317.054-.476q.03753-.336.077-.674c.019-.164.037-.328.057-.492.025-.219.05-.44.077-.661.02-.172.041-.345.061-.516q.039-.315.076-.631l.069-.549q.03749-.3105.077-.619c.023-.18.047-.359.07-.537q.042-.315.082-.628.0375-.2745.076-.547c.028-.206.055-.411.084-.616q.039-.2715.079-.542.045-.3135.091-.627.04052-.261.08-.522c.033-.212.065-.424.099-.636.028-.178.059-.357.088-.536.033-.204.066-.409.102-.613.03-.179.062-.357.093-.536q.05252-.30448.108-.608c.033-.181.067-.36.101-.54.037-.196.074-.393.112-.588.037-.187.075-.372.113-.558.038-.187.075-.373.114-.559s.081-.371.121-.555c.04-.183.08-.367.121-.548.042-.185.087-.366.13-.55.042-.178.084-.357.128-.534.044-.181.091-.358.138-.537.045-.177.09-.355.137-.53.045-.172.094-.342.142-.514.05-.176.098-.354.149-.527.048-.167.1-.332.15-.497.053-.174.105-.35.16-.522.052-.163.107-.322.16-.483.056-.169.111-.339.168-.505.057-.162.116-.321.174-.481.059-.16.115-.322.175-.479.061-.16.125-.317.188-.474.061-.151.12-.305.182-.454.064-.154.132-.304.198-.455.065-.147.128-.296.195-.441.067-.146.138-.288.208-.431.069-.143.136-.287.207-.427.072-.142.147-.276.221-.414.073-.136.143-.273.218-.405.077-.137.157-.267.237-.4.076-.127.149-.256.227-.379.081-.13.167-.253.251-.379.079-.12.157-.242.238-.357.088-.124.18-.241.27-.361.082-.11.162-.223.247-.328.093-.119.19-.228.287-.341.085-.101.169-.205.257-.303.096-.106.197-.205.296-.308.092-.094.182-.194.277-.285.102-.097.207-.187.312-.28.096-.087.191-.178.291-.261.107-.089.219-.169.33-.254.1-.077.199-.158.302-.231.115-.081.234-.152.351-.228.105-.066.207-.138.313-.201.123-.072.251-.135.377-.201.108-.056.211-.117.321-.169.132-.062.27-.115.406-.172.108-.045.213-.095.323-.136.142-.052.288-.093.434-.139.11-.034.218-.075.331-.106.162-.044.331-.076.497-.111.101-.021.199-.049.302-.067.176-.032.361-.051.544-.073.097-.011.193-.029.293-.038.284-.025.575-.039.872-.04h.043c.157,0,.308.012.463.02.121.006.244.005.363.014.164.014.323.04.483.062.112.015.228.024.339.043.169.029.333.07.498.108.099.023.199.039.296.065.196.052.387.115.578.179.063.021.128.037.191.059a10.06506,10.06506,0,0,1,2.162,1.091c.029.019.056.041.086.06.198.134.394.272.587.42.044.035.086.073.13.108.175.137.35.277.52.427.049.043.096.09.144.134.164.148.327.296.486.454.046.045.09.095.135.141.159.162.318.325.473.497.045.05.088.104.133.154.152.174.306.349.455.532.043.053.086.111.129.166.147.184.295.371.438.565.043.058.084.118.126.177.143.196.286.393.424.598.041.06.08.124.121.184.138.208.277.416.411.632.038.06.075.124.113.185.135.221.27.443.402.671.034.059.067.12.1.178.135.234.267.471.397.713.032.06.064.122.096.183.13.245.26.492.387.744.028.056.056.116.085.173.129.258.255.519.38.784.028.057.054.116.082.174.125.269.25.541.373.816.022.051.044.103.066.154q.1875.426.371.862c.022.048.041.099.062.148q.18451.4425.364.893l.054.135q.1815.46048.359.928c.017.042.031.085.048.127.119.317.238.638.355.96.012.033.024.067.035.101q.18151.498.356,1.004c.01.026.018.053.027.08q.18.51752.355,1.043c.006.014.009.03.014.045,1.392,4.174,2.587,8.62,3.755,12.808.357,1.279.711,2.535,1.068,3.751.011.04.024.081.036.122.085.29.171.577.256.863q.033.111.066.219.12.399.24.787l.079.255q.114.36153.226.715c.033.105.066.209.1.312q.105.3255.211.645c.039.115.077.231.116.345.067.201.135.399.203.596.042.119.083.238.124.356.067.189.135.376.202.56q.066.183.132.36c.054.145.108.287.163.43.012.031.023.062.035.092.047.122.094.244.141.364.064.164.13.325.195.484.05.122.1.244.15.363.065.154.129.303.195.451.051.121.104.24.157.356.064.142.129.281.194.419.055.117.11.232.165.346q.09745.19653.196.389c.057.112.114.223.173.331.064.122.13.241.196.36.059.106.12.211.18.314.066.111.132.221.199.328.062.102.126.2.189.298.067.102.134.201.201.299.065.093.129.183.195.272q.102.141.207.273c.067.086.134.168.202.249.069.083.139.163.21.241.069.077.139.152.211.225.071.073.142.143.215.211.072.068.144.132.217.196.074.062.148.123.222.181s.149.114.226.167c.075.052.15.102.226.15.077.048.155.093.235.135.077.042.155.082.233.119.08.037.161.07.242.102.08.032.16.061.241.086.082.027.166.048.251.069.082.02.164.038.247.052.086.015.173.025.26.034.085.008.171.015.257.017a3.949,3.949,0,0,0,.421-.004c1.1-.087,1.305-3.032.879-7.942q-.201-2.3025-.574-5.147c-.15-1.136-.319-2.334-.506-3.585-.08-.537-.165-1.089-.252-1.647-.115-.739-.234-1.49-.36-2.262q-.165-1.01548-.342-2.065-.3555-2.103-.753-4.334c-.398-2.229-.825-4.548-1.279-6.938q-.45-2.388-.935-4.867-.273-1.3935-.554-2.81c-.808-4.087-1.666-8.304-2.549-12.574-.064-.309.245-.59.685-.857.264-.159.574-.315.88-.466.305-.152.606-.303.849-.453.406-.25.652-.502.495-.77-.73-1.255-1.43-2.629-2.097-4.087-.668-1.459-1.303-3.002-1.906-4.598q-.30153-.79652-.591-1.611c-.247-.691-.487-1.391-.721-2.094-.686-2.054-1.324-4.148-1.908-6.22-.47-1.669-.906-3.324-1.309-4.931-.267-1.071-.52-2.121-.759-3.139-.712-3.057-1.288-5.834-1.721-8.066-.145-.744-.274-1.427-.386-2.04-.113-.613-.211-1.156-.291-1.618-.203-1.156-.306-1.811-.306-1.811s-.006-.019-.017-.047l-.011-.027c-.015-.04-.034-.092-.059-.163-.003-.011-.007-.022-.011-.033-.023-.067-.048-.145-.074-.232l-.015-.046c-.029-.097-.06-.206-.089-.322l-.02-.077a7.97394,7.97394,0,0,1-.16-.833l-.012-.092c-.019-.151-.033-.305-.04-.463-.001-.023,0-.047-.001-.071-.006-.145-.005-.292.003-.439,0-.026,0-.051.002-.077a4.46352,4.46352,0,0,1,.06-.473c.006-.032.014-.064.021-.097a2.94165,2.94165,0,0,1,.348-.909c.018-.03.034-.059.054-.088a2.46017,2.46017,0,0,1,.307-.384c.019-.02.042-.037.061-.056a2.51784,2.51784,0,0,1,.383-.298c.025-.017.048-.035.075-.05a3.1871,3.1871,0,0,1,.535-.249c.043-.016.088-.03.133-.044a4.27212,4.27212,0,0,1,.689-.165h.003a6.43056,6.43056,0,0,1,.832-.058c.038-.001.067-.007.106-.007.051,0,.107.004.16.005.069.001.141.004.213.007.146.006.299.017.456.032.069.006.137.011.209.018a14.8145,14.8145,0,0,1,1.514.257c.084.018.173.041.258.061.2.047.405.097.616.154.103.028.209.057.315.087.216.061.441.128.669.199.101.032.2.061.304.095.334.108.677.224,1.038.353a35.25372,35.25372,0,0,1,5.667,2.666,46.97261,46.97261,0,0,1,4.131,2.699c.653.476,1.288.962,1.903,1.452a66.73561,66.73561,0,0,1,10.668,10.763l3.728-.932s-1.411-3.686-4.062-8.84" transform="translate(-1021.27961 -420.6553)" fill="#1d3251"/><path d="M1207.15169,616.56724c.412.032.849.077,1.341.153a30.25,30.25,0,0,1,9.644,3.481c.946.515,1.833,1.047,2.65,1.567a44.82779,44.82779,0,0,1,5.378,3.987l2.426-1.138a76.28316,76.28316,0,0,0-10.165-12.427q-.4845-.47548-.987-.945c-1.005-.94-2.06-1.861-3.159-2.735-.732-.583-1.483-1.146-2.252-1.681a33.19338,33.19338,0,0,0-4.796-2.803,24.03986,24.03986,0,0,0-3.8-1.426c-.002-.014-.027-.031-.066-.048-.014-.006-.036-.013-.054-.019a.97507.97507,0,0,0-.096-.033c-.022-.007-.045-.011-.068-.016-.038-.009-.075-.02-.113-.026-.024-.004-.042-.004-.065-.007-.036-.004-.073-.01-.101-.01l-.018-.005-.006.006h-.124c-.103,0-.225-.008-.337-.012-.111-.004-.216-.005-.335-.013-.142-.009-.296-.023-.448-.037-.125-.011-.245-.02-.375-.034-.161-.017-.328-.038-.495-.058-.13-.016-.256-.03-.388-.047-.179-.024-.361-.049-.543-.075-.127-.018-.252-.035-.378-.053-.183-.027-.364-.054-.545-.081-.314-.047-.62-.091-.919-.135-.098-.015-.201-.031-.296-.044-.194-.028-.373-.052-.554-.076-.087-.011-.181-.025-.264-.036-.255-.032-.494-.059-.71-.078-.445-.039-.859-.073-1.246-.103-.159-.013-.297-.021-.447-.032-.215-.015-.437-.032-.636-.044-.145-.008-.271-.013-.408-.02-.182-.009-.371-.02-.539-.025-.123-.005-.232-.005-.349-.007-.164-.004-.333-.009-.485-.009-.031,0-.059.002-.089.002-.204.001-.398.006-.587.015-.065.002-.129.006-.192.01-.156.009-.31.02-.458.035-.056.005-.111.01-.166.016-.196.022-.389.047-.577.079-.016.002-.031.006-.046.008-.175.03-.348.065-.522.104-.054.012-.109.025-.163.038-.145.034-.292.071-.44.112-.051.014-.101.027-.153.041-.197.056-.398.116-.609.183l-.015.005c-.209.066-.428.139-.656.216-.068.023-.138.047-.209.072-.188.064-.383.131-.589.203-.072.026-.141.049-.216.076-.282.098-.579.203-.899.315q-.387.135-.817.284c-.101.035-.203.07-.307.105q-.39.13348-.817.277c-.122.041-.241.081-.367.123-.405.135-.827.273-1.287.421-11.577,8.626-15.113,30.433-15.113,30.433l2.678.106a46.56623,46.56623,0,0,1,5.76-8.855,30.9543,30.9543,0,0,1,5.956-5.616,187.43623,187.43623,0,0,1-.307,26.443c-.308,4.483-.688,8.88-1.057,13.003-.147,1.649-.293,3.254-.431,4.804-.276,3.098-.523,5.973-.698,8.529-.035.523-.066,1.024-.095,1.52-.042.715-.079,1.409-.106,2.062-.043,1.044-.063,1.998-.059,2.868,0,.052-.002.111-.001.163.007.91.043,1.717.113,2.408.176,1.727.566,2.73,1.256,2.821a1.2785,1.2785,0,0,0,.351-.022,1.24809,1.24809,0,0,0,.236-.047,1.399,1.399,0,0,0,.243-.119,1.59075,1.59075,0,0,0,.214-.135,2.36316,2.36316,0,0,0,.224-.215c.066-.07.132-.135.196-.217.071-.093.139-.201.208-.309.059-.094.119-.183.177-.288.067-.123.13-.263.195-.4.054-.116.108-.226.16-.35.063-.153.124-.321.186-.488.047-.133.097-.26.144-.402.062-.183.12-.382.18-.58.043-.144.087-.283.13-.434.06-.219.119-.452.178-.685.037-.148.077-.29.113-.443.009-.04.018-.083.028-.123.053-.223.105-.453.157-.687.031-.14.063-.274.094-.418.068-.317.136-.647.202-.98.023-.112.046-.219.068-.332.083-.422.167-.856.25-1.298.003-.024.008-.048.013-.073.087-.468.175-.947.263-1.433.521-2.882,1.07-6.052,1.779-9.099.028-.123.056-.248.085-.37.077-.327.161-.649.243-.972.049-.197.097-.394.148-.588.077-.29.159-.574.239-.861.062-.218.121-.44.186-.656.079-.267.164-.526.247-.788.071-.226.141-.457.216-.68.083-.246.172-.483.258-.723.083-.228.162-.458.248-.679.089-.229.184-.448.277-.67.091-.22.181-.442.277-.655s.198-.413.298-.618c.101-.207.201-.418.307-.617.103-.195.213-.376.321-.562.112-.193.223-.389.341-.572.111-.175.229-.336.345-.501.124-.175.246-.353.375-.517.121-.154.249-.295.375-.438.135-.155.27-.31.41-.452.132-.132.27-.249.407-.371.147-.13.295-.261.448-.378.143-.109.291-.203.439-.298.161-.105.321-.209.488-.298.154-.083.314-.151.474-.22.174-.076.349-.15.53-.211.167-.055.339-.095.512-.136.188-.044.377-.086.573-.115.18-.025.367-.036.553-.047.129-.007.249-.032.381-.032.152,0,.305.005.461.015a6.72224,6.72224,0,0,1,1.162.174c.145.035.278.095.418.139a6.54462,6.54462,0,0,1,.655.221c.162.069.31.167.465.25.176.093.359.174.527.283.162.105.31.235.465.355.15.113.304.213.448.339.157.139.303.303.454.457.128.129.262.247.386.386.151.173.292.368.437.556.11.142.227.273.334.424.133.188.256.396.384.596.107.17.221.33.324.506.117.2.225.417.336.626.105.197.214.384.314.588.106.215.204.445.305.669.097.214.198.422.292.644.087.205.166.422.249.633.101.254.204.503.3.766.066.182.128.373.192.559.105.302.212.601.313.913.052.161.099.33.15.494.108.345.215.686.317,1.039.034.121.066.247.1.369.113.401.226.804.332,1.214.016.06.031.123.046.185.764,2.959,1.384,6.086,1.997,9.036.501,2.408,1,4.689,1.571,6.657.089.308.179.612.272.904.012.036.022.076.034.112.105.322.213.625.322.924.031.082.059.172.089.252.101.266.208.51.315.756.043.099.082.207.126.302.097.213.202.402.304.597.058.109.113.229.172.333.097.168.201.312.303.463.071.107.139.226.213.324.099.131.205.235.309.35.084.094.164.2.251.282a3.43837,3.43837,0,0,0,.319.246,2.97448,2.97448,0,0,0,.292.22,26.328,26.328,0,0,0,.665.287,2.27706,2.27706,0,0,0,.352.049,2.47841,2.47841,0,0,0,.388.049c.71-.008.915-2.405.779-6.297-.069-1.984-.227-4.358-.452-7.002-.143-1.688-.313-3.486-.507-5.365q-.147-1.443-.311-2.944c-.219-1.998-.456-4.064-.708-6.162-.189-1.575-.385-3.166-.586-4.764-.268-2.129-.545-4.267-.825-6.38-.281-2.112-.563-4.2-.843-6.229q-.21-1.5225-.416-2.997c-.137-.981-.272-1.944-.406-2.883q-.201-1.41-.393-2.746c-.192-1.335-.377-2.608-.553-3.807-.935-6.394-1.598-10.655-1.598-10.655a5.485,5.485,0,0,1-.199-.929,4.47327,4.47327,0,0,1-.019-1.066" transform="translate(-1021.27961 -420.6553)" fill="#1d3251"/><path d="M1192.7093,575.28556c-.357-.024-.71-.024-1.062-.018-.192.004-.381.016-.571.028-.217.014-.432.03-.646.054-.189.022-.374.052-.56.082-.21.035-.42.072-.626.117-.182.04-.363.085-.543.133-.204.054-.405.112-.605.176-.176.057-.35.117-.522.182q-.294.1095-.582.233c-.168.073-.333.148-.497.227q-.28049.138-.556.288c-.158.088-.315.177-.47.27-.178.109-.352.223-.524.34-.149.101-.297.203-.441.31-.168.125-.33.257-.491.39-.138.113-.276.227-.408.347-.157.14-.306.288-.455.436-.126.126-.253.25-.373.381-.143.156-.278.319-.414.483-.112.135-.226.269-.334.41-.13.171-.251.351-.372.529-.097.144-.199.285-.291.434-.116.187-.22.381-.326.575-.083.151-.17.298-.246.453-.101.203-.188.414-.277.623-.067.155-.138.306-.199.464-.085.224-.154.456-.226.687-.048.152-.103.3-.145.454-.07.26-.123.528-.176.795-.027.132-.063.261-.085.394-.068.405-.118.815-.146,1.233a12.47327,12.47327,0,0,0-.02,1.266,12.31177,12.31177,0,0,0,1.114,4.716c.167.362.35.716.55,1.058a12.42541,12.42541,0,0,0,4.085,4.244,12.287,12.287,0,0,0,4.524,1.736,12.61689,12.61689,0,0,0,1.257.148c.357.024.71.024,1.061.018.192-.004.382-.015.572-.028.216-.014.432-.029.646-.054.189-.022.374-.052.56-.082.21-.034.419-.072.626-.117.182-.04.363-.085.543-.133.203-.054.405-.112.604-.176q.26551-.08551.523-.182c.196-.073.389-.151.581-.233q.252-.108.498-.227c.187-.091.372-.188.554-.288.16-.088.317-.176.471-.27.179-.109.353-.223.524-.34.15-.101.297-.203.442-.31.168-.125.33-.256.49-.389.139-.114.276-.228.409-.347.157-.141.306-.289.454-.437.126-.125.252-.25.372-.38.145-.157.28-.32.416-.484.112-.136.226-.269.334-.41.129-.171.25-.35.371-.528.098-.144.2-.286.292-.434.115-.187.219-.382.326-.575.082-.151.17-.299.246-.454.1-.203.187-.414.277-.624.067-.154.138-.305.197-.463.086-.225.156-.458.228-.689.048-.15.103-.298.145-.452.071-.261.123-.531.177-.8.027-.13.062-.257.084-.389q.102-.606.146-1.233a12.31535,12.31535,0,0,0-1.095-5.981c-.166-.363-.35-.716-.549-1.059a12.35266,12.35266,0,0,0-9.866-6.128" transform="translate(-1021.27961 -420.6553)" fill="#1d3251"/><path d="M1259.38309,641.558c1.007.631,1.883,1.247,2.566,1.762.42.315.77.593,1.038.813.269.22.456.381.551.464l.072.064,1.798-.843a56.0076,56.0076,0,0,0-5.446-7.037c-.288-.319-.589-.64-.895-.962-.832-.873-1.726-1.751-2.678-2.599a25.27118,25.27118,0,0,0-9.62-5.714c-.001-.01-.021-.022-.049-.035-.011-.005-.027-.01-.04-.015-.023-.008-.044-.016-.07-.024-.018-.005-.037-.008-.054-.012-.027-.007-.054-.014-.081-.019-.018-.003-.031-.003-.048-.005-.026-.003-.055-.007-.075-.007l-.013-.004-.005.004c-.03.001-.06.001-.092.001-.077,0-.167-.007-.25-.01-.082-.003-.16-.004-.248-.009-.107-.007-.221-.018-.336-.028-.09-.008-.177-.014-.271-.024-.123-.013-.25-.03-.377-.045-.094-.011-.185-.021-.279-.034-.136-.017-.274-.037-.411-.057-.091-.012-.179-.024-.27-.037-.179-.026-.355-.052-.531-.079-.134-.02-.262-.038-.393-.058-.13-.019-.261-.039-.386-.056-.151-.022-.293-.041-.433-.06-.055-.007-.114-.016-.167-.023-.19-.023-.367-.043-.528-.057-.33-.029-.636-.055-.922-.077-.087-.007-.161-.011-.244-.017-.193-.014-.387-.029-.563-.039-.084-.005-.156-.008-.236-.012-.158-.008-.318-.017-.462-.022-.094-.003-.178-.003-.267-.005-.118-.002-.239-.006-.349-.006-.026,0-.048.001-.074.001-.148.001-.29.005-.426.01-.049.003-.098.006-.146.008-.116.007-.228.016-.338.026-.041.004-.083.007-.123.012-.145.016-.288.035-.428.058l-.035.007c-.128.022-.257.048-.385.076-.041.01-.082.019-.122.029-.106.025-.213.052-.322.082-.039.01-.078.021-.118.032-.146.041-.293.085-.448.134l-.019.006c-.153.049-.314.103-.482.16-.048.015-.097.032-.146.049-.146.05-.297.103-.458.159-.04.013-.077.027-.118.041-.17.059-.348.122-.536.188-.026.009-.05.017-.076.027l-.002.001c-.213.074-.442.153-.681.236-.076.027-.155.054-.234.081-.194.066-.397.134-.61.206-.086.029-.169.057-.258.086-.301.101-.616.204-.959.314a21.48991,21.48991,0,0,0-5.368,6.219c-.544.904-1.044,1.839-1.501,2.78-.609,1.255-1.143,2.524-1.609,3.755a57.74026,57.74026,0,0,0-1.85,5.85c-.183.709-.335,1.348-.458,1.894-.285,1.275-.411,2.047-.411,2.047l1.985.079a32.74719,32.74719,0,0,1,2.308-3.943q.28048-.41248.592-.847a31.07648,31.07648,0,0,1,2.138-2.661q.40052-.444.829-.877a20.51979,20.51979,0,0,1,2.812-2.392c.094,1.209.161,2.453.202,3.721.041,1.269.057,2.563.053,3.873-.011,3.931-.208,8.01-.482,11.996-.091,1.329-.192,2.647-.296,3.946q-.15751,1.95-.322,3.831c-.111,1.252-.221,2.477-.327,3.663-.046.509-.091,1.008-.135,1.502-.258,2.884-.483,5.511-.613,7.746-.265,4.536-.142,7.458.894,7.596a.90442.90442,0,0,0,.261-.017.86254.86254,0,0,0,.174-.034,1.03308,1.03308,0,0,0,.18-.088,1.10341,1.10341,0,0,0,.158-.1,1.47962,1.47962,0,0,0,.167-.161,1.87577,1.87577,0,0,0,.144-.159c.054-.069.104-.15.155-.23.044-.07.088-.135.13-.212.05-.092.098-.195.146-.298.04-.085.08-.166.118-.259.048-.113.093-.238.138-.363.036-.097.072-.191.107-.295.045-.137.089-.285.133-.432.032-.106.064-.209.095-.32.045-.162.089-.335.133-.508.028-.109.057-.215.084-.328.046-.193.092-.397.137-.601.023-.103.047-.202.069-.307.051-.237.102-.484.152-.734.015-.08.032-.157.049-.238.061-.311.122-.632.183-.958l.012-.06c.049-.261.097-.531.146-.799.401-2.203.819-4.648,1.366-6.997.021-.093.041-.188.063-.281.056-.233.115-.463.174-.695l.005-.02c.037-.147.072-.294.111-.44.057-.215.117-.426.177-.638.046-.162.09-.325.137-.485.059-.199.123-.393.185-.589.053-.166.104-.335.158-.498.063-.184.129-.362.195-.542.059-.166.118-.335.18-.497.067-.171.138-.335.207-.501.068-.161.133-.325.203-.48.072-.158.148-.308.222-.46.075-.154.149-.309.227-.456.077-.145.159-.28.239-.417.083-.143.164-.287.251-.423.083-.129.171-.249.258-.372.091-.13.181-.261.276-.382.09-.114.185-.219.278-.325.1-.114.2-.23.304-.334.098-.099.199-.186.301-.275.109-.097.218-.194.332-.281.105-.08.215-.149.324-.221.119-.077.238-.154.362-.22.115-.062.234-.112.352-.163.129-.056.258-.112.393-.156.123-.041.251-.07.379-.101.139-.033.28-.065.424-.085.134-.019.272-.027.41-.034.095-.006.185-.025.283-.025.112,0,.225.004.341.011a5.1042,5.1042,0,0,1,.861.129c.115.028.222.076.333.111.155.05.314.091.462.155.116.051.222.121.334.18.134.071.272.133.4.216.119.077.23.174.344.261.11.085.225.16.333.254.111.097.214.214.321.322.1.1.204.193.301.302.103.119.2.254.3.381.09.115.184.222.271.344.101.142.193.298.288.449.079.124.161.239.237.368.095.163.182.339.273.51.069.13.142.254.208.389.086.174.165.36.247.542.065.144.133.281.195.43.074.173.14.355.209.533.067.168.135.331.198.503.061.168.118.344.177.516.066.191.134.378.197.574.051.158.097.322.147.483.067.217.135.432.198.652.036.122.067.248.101.37.011.036.021.073.03.109.064.231.129.461.191.696.014.059.029.118.044.177.087.338.172.677.255,1.02.009.043.019.086.029.129.53,2.228.973,4.533,1.429,6.658.269,1.255.544,2.447.843,3.519.007.023.012.046.019.069.079.279.16.545.243.807.015.045.027.094.042.139.075.233.155.453.234.671.024.064.046.135.071.199.07.186.146.358.22.532.037.082.07.173.106.252.07.152.145.289.22.429.044.085.087.179.132.259.071.121.145.224.218.334.056.082.108.173.165.25.071.093.147.168.221.25.064.073.127.154.194.218a2.42443,2.42443,0,0,0,.228.175,2.31542,2.31542,0,0,0,.224.17,2.21556,2.21556,0,0,0,.24.106,1.99538,1.99538,0,0,0,.253.107,2.15784,2.15784,0,0,0,.256.035,1.88025,1.88025,0,0,0,.291.037c.22-.003.375-.313.473-.884.039-.228.069-.498.091-.806.033-.463.047-1.012.043-1.638q-.0015-.312-.009-.65c-.01-.45-.026-.933-.051-1.445-.023-.511-.053-1.052-.09-1.619-.03-.457-.065-.935-.102-1.425-.056-.725-.117-1.48-.188-2.267q-.045-.495-.092-1.004c-.097-1.019-.203-2.078-.32-3.169-.077-.727-.158-1.469-.242-2.221-.009-.075-.017-.152-.025-.227-.204-1.81-.427-3.678-.661-5.566-.293-2.359-.603-4.747-.915-7.078-.105-.777-.209-1.549-.313-2.31q-.156-1.143-.31-2.254c-.668-4.811-1.299-9.1-1.737-12.022-.067-.449-.131-.866-.188-1.248-.259-1.717-.415-2.716-.415-2.716s-.004-.011-.01-.033c-.014-.044-.037-.128-.064-.241-.025-.112-.053-.255-.074-.413a3.66951,3.66951,0,0,1-.03-.516c.001-.091.007-.182.017-.274.305.023.629.057.994.113a22.40773,22.40773,0,0,1,7.143,2.578c.27.148.526.296.782.446q.48752.2835.939.567" transform="translate(-1021.27961 -420.6553)" fill="#1d3251"/><path d="M1233.31379,624.15705a9.1413,9.1413,0,0,0,4.282,1.396c.266.018.527.018.787.013.142-.002.283-.011.422-.02.161-.011.321-.022.481-.041.138-.016.276-.037.413-.06.156-.026.311-.053.465-.087.134-.029.268-.063.401-.098.151-.041.302-.083.45-.131.129-.042.257-.087.384-.134q.219-.081.434-.174c.123-.053.246-.108.366-.167q.20852-.102.413-.215c.117-.064.233-.129.347-.199.132-.08.262-.166.39-.252.111-.075.219-.15.325-.229.125-.093.246-.191.367-.29.1-.084.202-.167.299-.255.117-.105.228-.215.339-.326.093-.092.186-.184.275-.28.106-.116.207-.238.308-.359.082-.1.167-.199.246-.302.096-.127.186-.26.276-.393.072-.106.147-.211.216-.322.085-.138.163-.281.241-.424.061-.112.126-.222.182-.337.076-.15.14-.307.206-.462.049-.115.102-.227.147-.343.062-.166.114-.338.168-.509.035-.112.076-.222.106-.336.053-.192.091-.389.13-.585.021-.1.048-.197.065-.297.049-.298.086-.601.107-.909v-.004a9.19382,9.19382,0,0,0,.016-.938c-.011-.309-.036-.615-.077-.917a9.16073,9.16073,0,0,0-8.465-7.9c-.265-.018-.527-.018-.787-.013-.142.002-.283.011-.422.02-.161.01-.322.022-.48.041-.139.016-.277.037-.414.06-.156.025-.311.053-.465.086-.134.03-.268.064-.401.099-.151.04-.302.083-.449.131-.13.042-.258.087-.386.134-.146.054-.29.112-.432.173-.124.054-.247.109-.367.168-.139.068-.277.139-.413.214-.117.065-.233.13-.348.199-.131.081-.261.166-.389.253-.11.074-.219.15-.325.229-.125.092-.246.19-.366.289-.101.084-.203.168-.301.257-.116.104-.227.213-.337.323-.093.093-.187.185-.276.282-.106.116-.207.236-.306.358-.084.1-.169.199-.248.304-.096.126-.185.258-.275.389-.073.108-.148.214-.218.325-.085.137-.161.28-.239.422-.061.113-.127.223-.183.339-.075.15-.139.305-.206.46-.048.115-.102.228-.147.345-.062.165-.113.335-.166.505-.036.114-.077.225-.108.341-.052.189-.089.383-.129.577-.021.102-.048.201-.066.305-.049.289-.083.583-.104.882,0,.01-.002.019-.003.03a9.14605,9.14605,0,0,0,4.244,8.359" transform="translate(-1021.27961 -420.6553)" fill="#1d3251"/><path d="M1096.44109,708.15336h9.001c4.3,0,5.9,2.3,6.9,5.7.8,3.401,16.101,51.303,17.401,56.604.8,3.4.4,5.7-3.2,5.7h-4.1c-4.701,0-4.9-3.3-5.6-5-.601-1.5-1.701-5.7-3.701-10.6h-25.201c-1.8,5.2-3.2,9.1-3.5,10.299-.7,3.501-1.6,5.301-5.101,5.301h-5.7c-2.7,0-3.7-2.4-2.8-5.4,2.4-8.2,17.801-53.404,18.801-57.003.9-3.301,2.1-5.601,6.8-5.601m-6.2,42.803h20.601c-4.1-13.301-8.9-28.902-10-33.303h-.601c-1.1,4.801-5.9,20.302-10,33.303" transform="translate(-1021.27961 -420.6553)" fill="#1d3251"/><path d="M1140.2391,708.15365h33.602c3.101,0,4.101,1.7,4.101,4.4v3.6c0,3.4-1.601,3.9-4.702,3.9h-24.2l-.1,19.402c4.6.099,16.901,0,22.101,0,2.9,0,4.1.8,4.1,3.5v3.801c0,2.599-.9,3.5-3.3,3.299-2.9-.299-16.601-.2-23.001-.099,0,9.6.399,17.2.399,19.6,0,3.801-.199,6.601-4.6,6.601h-4.6c-4.2,0-4.7-2.5-4.7-6.4,0-1.1.1-3.201.1-5.801.1-14.401,0-45.603,0-47.702,0-4.901-.9-8.101,4.8-8.101" transform="translate(-1021.27961 -420.6553)" fill="#1d3251"/><path d="M1189.3382,708.15365h35.902c3.5,0,4.101,1.7,4.101,4.3v3.5c0,2.801-1.4,3.9-4.301,3.801h-26.302l-.099,17.401c7.4,0,20.201,0,22.601-.101a2.94656,2.94656,0,0,1,3.4,3.201v4c0,2.6-.8,3.1-3.1,3.1-2.9,0-15.301-.099-22.901,0,0,6.5.099,12.001.2,17.201,7.6,0,23.301-.1,26.301-.299,2.9-.201,4.201,1.2,4.201,4v4.7c0,2.6-.601,3.2-4.101,3.2h-35.502c-4.6,0-4.701-4.101-4.6-7.2.2-7.901-.2-50.404-.2-52.703-.1-3.401-1.701-8.101,4.4-8.101" transform="translate(-1021.27961 -420.6553)" fill="#1d3251"/><path d="M1244.83921,708.15365h9.7c1.8,0,4.401.4,5.2,3.4,1.101,3.6,13.601,40.502,13.601,40.502h.801s13-37.202,14.001-40.602c.899-3.2,3.5-3.3,5.7-3.3h9.7c4.7,0,4.5,4,4.601,7.101.5,6.799,3.5,44.102,4.4,54.302.199,3.401,1.8,6.601-4.501,6.601h-4.5c-5,0-4.3-3-4.5-6.101-.3-4-2.2-39.301-2.9-47.602h-.7c-1.8,6.1-12.401,36.202-13.401,39.702-.8,2.3-2.2,3.101-3.801,3.101h-8.799a4.44119,4.44119,0,0,1-4.202-3.101c-1.099-4.101-11.799-34.302-13.3-39.702h-.6c-.4,11.7-1.7,42.303-1.9,47.803-.2,3.5.6,5.9-4.201,5.9h-5.099c-4.601,0-5.001-2.4-4.601-5.5.901-7.9,4.5-52.903,5-57.004.101-1.6-.099-5.5,4.301-5.5" transform="translate(-1021.27961 -420.6553)" fill="#1d3251"/><path d="M1330.03941,741.75526c0,16.201,8.2,24.002,17.501,24.002,16.102,0,15.101-18.102,15.101-18.102l-12.901.101c-1.5,0-2-1.101-2-2.4l-.1-5.401c0-1.2,1.001-2,2.6-2h21.102c3.5,0,4.2.8,4.099,4-.099,3.401-.799,24.002-.5,29.102.301,3.4-.599,5.1-3.2,5.1h-4.5c-2.5,0-3.599-1.299-3.599-4.1,0-.9.299-5.3.199-6.6h-.9s-3.2,11.7-18.301,11.7c-17.702,0-28.302-15.201-28.202-35.002.1-19.901,11.401-35.002,32.002-35.002,12,0,18.301,3.601,20.402,5,2.099,1.401,4.099,4,.899,8.601a10.77133,10.77133,0,0,1-3.2,3s-5.7-5.101-17.301-5.101c-11.1,0-19.201,8.801-19.201,23.102" transform="translate(-1021.27961 -420.6553)" fill="#1d3251"/></svg>